<?xml version="1.0" standalone="no"?>
<!DOCTYPE svg PUBLIC "-//W3C//DTD SVG 20010904//EN"
 "http://www.w3.org/TR/2001/REC-SVG-20010904/DTD/svg10.dtd">
<svg version="1.0" xmlns="http://www.w3.org/2000/svg"
 width="700.000000pt" height="700.000000pt" viewBox="0 0 700.000000 700.000000"
 preserveAspectRatio="xMidYMid meet">
<metadata>
Created by potrace 1.14, written by Peter Selinger 2001-2017
</metadata>
<g transform="translate(0.000000,700.000000) scale(0.100000,-0.100000)"
fill="#000000" stroke="none">
<path d="M0 3500 l0 -3500 3500 0 3500 0 0 3500 0 3500 -3500 0 -3500 0 0
-3500z m2920 983 c171 -58 279 -160 330 -313 37 -110 19 -304 -36 -387 -14
-22 -21 -23 -139 -23 l-124 0 27 58 c35 75 43 237 17 328 -56 192 -184 302
-376 324 -46 6 -162 10 -256 10 l-173 0 0 -360 0 -360 -140 0 -140 0 0 376 0
375 473 -3 c453 -4 475 -5 537 -25z m2300 -68 l0 -95 -49 25 c-162 81 -291
114 -489 123 l-142 7 0 -357 0 -358 -140 0 -140 0 0 358 0 357 -142 -6 c-90
-4 -175 -14 -228 -27 -85 -20 -232 -78 -273 -107 -12 -8 -25 -15 -29 -15 -5 0
-8 43 -8 95 l0 95 820 0 820 0 0 -95z m-3390 -900 c0 -87 -3 -105 -15 -105
-12 0 -15 18 -15 105 0 87 3 105 15 105 12 0 15 -18 15 -105z m100 85 c25 -25
25 -46 0 -67 -19 -16 -19 -17 3 -28 31 -15 34 -59 5 -79 -12 -9 -29 -16 -37
-16 -11 0 -8 5 7 16 29 20 26 64 -5 79 -21 11 -21 11 -2 23 23 15 25 49 2 74
-22 25 2 23 27 -2z m130 -85 c0 -87 -3 -105 -15 -105 -12 0 -15 18 -15 105 0
87 3 105 15 105 12 0 15 -18 15 -105z m120 95 c0 -5 -14 -7 -32 -3 -46 8 -48
13 -5 13 21 0 37 -4 37 -10z m110 -95 c0 -87 -3 -105 -15 -105 -12 0 -15 18
-15 105 0 87 3 105 15 105 12 0 15 -18 15 -105z m220 83 c-29 -31 -29 -139 0
-168 11 -11 18 -20 16 -20 -70 0 -90 149 -27 197 26 20 33 15 11 -9z m127 -29
c21 -41 16 -94 -13 -128 -14 -17 -31 -31 -37 -31 -9 0 -9 2 -1 8 40 26 47 133
12 178 l-23 29 25 -16 c14 -9 31 -27 37 -40z m144 -58 c30 -84 34 -102 20 -99
-10 2 -27 34 -48 93 -35 100 -39 119 -21 113 7 -3 29 -50 49 -107z m96 77 c-3
-7 -5 -2 -5 12 0 14 2 19 5 13 2 -7 2 -19 0 -25z m108 -73 c0 -77 -3 -105 -12
-105 -10 0 -13 28 -13 105 0 77 3 105 13 105 9 0 12 -28 12 -105z m125 95 c0
-5 -14 -7 -32 -3 -46 8 -48 13 -5 13 21 0 37 -4 37 -10z m105 -95 c0 -77 -3
-105 -12 -105 -10 0 -13 28 -13 105 0 77 3 105 13 105 9 0 12 -28 12 -105z
m94 90 c35 -17 41 -32 41 -95 0 -42 -4 -52 -31 -74 -17 -14 -35 -26 -40 -26
-6 0 2 11 17 24 24 20 28 31 28 81 1 50 -2 59 -27 81 -32 27 -28 30 12 9z
m251 11 c0 -2 -9 -6 -20 -9 -11 -3 -20 -1 -20 4 0 5 9 9 20 9 11 0 20 -2 20
-4z m60 -101 c0 -87 -3 -105 -15 -105 -12 0 -15 18 -15 105 0 87 3 105 15 105
12 0 15 -18 15 -105z m70 96 c0 -5 -9 -7 -20 -4 -11 3 -20 7 -20 9 0 2 9 4 20
4 11 0 20 -4 20 -9z m90 -96 c0 -87 -3 -105 -15 -105 -12 0 -15 18 -15 105 0
87 3 105 15 105 12 0 15 -18 15 -105z m138 -3 c2 -84 0 -102 -12 -102 -10 0
-15 16 -18 58 -5 90 1 154 15 149 8 -2 13 -38 15 -105z m128 95 c-36 -26 -41
-124 -9 -175 14 -22 13 -23 -6 -13 -29 16 -41 43 -41 91 0 43 21 95 42 103 25
10 32 7 14 -6z m122 -38 c19 -35 9 -105 -19 -135 -31 -34 -44 -30 -18 5 18 24
21 39 17 85 -3 35 -12 64 -24 78 l-19 22 25 -15 c14 -9 31 -27 38 -40z m112
-54 c0 -87 -3 -105 -15 -105 -12 0 -15 18 -15 105 0 87 3 105 15 105 12 0 15
-18 15 -105z m101 84 c23 -23 18 -56 -11 -77 -17 -13 -17 -15 6 -55 27 -48 29
-57 12 -57 -7 0 -25 22 -39 49 -25 48 -25 48 -5 57 31 14 34 67 4 88 -18 13
-19 16 -5 16 9 0 26 -9 38 -21z m119 -84 c0 -87 -3 -105 -15 -105 -12 0 -15
18 -15 98 0 54 3 102 7 105 18 19 23 -2 23 -98z m260 58 c-10 -27 -29 -74 -41
-105 -13 -33 -29 -58 -37 -58 -9 0 -12 6 -7 18 4 9 17 44 30 77 13 33 28 72
34 88 6 15 17 27 25 27 13 0 12 -7 -4 -47z m263 -57 c37 -54 67 -99 67 -102 0
-2 -6 -4 -12 -4 -12 0 -148 189 -148 205 0 22 33 -14 93 -99z m77 94 c0 -5 -4
-10 -10 -10 -5 0 -10 5 -10 10 0 6 5 10 10 10 6 0 10 -4 10 -10z m100 -95 c0
-87 -3 -105 -15 -105 -12 0 -15 18 -15 105 0 87 3 105 15 105 12 0 15 -18 15
-105z m-3710 -15 c0 -6 -102 -10 -285 -10 -183 0 -285 4 -285 10 0 6 102 10
285 10 183 0 285 -4 285 -10z m4620 0 c0 -6 -102 -10 -285 -10 -183 0 -285 4
-285 10 0 6 102 10 285 10 183 0 285 -4 285 -10z m-1250 -83 c0 -5 -4 -5 -10
-2 -5 3 -10 14 -10 23 0 15 2 15 10 2 5 -8 10 -19 10 -23z m80 8 c0 -8 -4 -15
-10 -15 -5 0 -7 7 -4 15 4 8 8 15 10 15 2 0 4 -7 4 -15z m-2760 -5 c0 -5 -12
-10 -27 -9 l-28 1 25 8 c14 4 26 8 28 9 1 1 2 -3 2 -9z m210 0 c0 -5 -12 -10
-27 -9 l-28 1 25 8 c14 4 26 8 28 9 1 1 2 -3 2 -9z m720 0 c0 -5 -15 -9 -32
-9 l-33 1 30 8 c17 4 31 8 33 9 1 0 2 -3 2 -9z m1500 0 c0 -5 -12 -10 -27 -9
l-28 1 25 8 c14 4 26 8 28 9 1 1 2 -3 2 -9z m-2420 -505 l0 -325 253 0 c186 0
266 4 306 15 247 65 410 308 372 554 -6 39 -11 72 -11 75 0 3 63 6 139 6 l139
0 7 -27 c12 -48 6 -187 -11 -243 -43 -146 -152 -277 -284 -342 -147 -73 -139
-72 -692 -76 l-498 -3 0 345 0 346 140 0 140 0 0 -325z m2350 -20 l0 -345
-140 0 -140 0 0 345 0 345 140 0 140 0 0 -345z"/>
</g>
</svg>
