<svg version="1.1" id="Layer_1" xmlns="http://www.w3.org/2000/svg" xmlns:xlink="http://www.w3.org/1999/xlink" x="0px" y="0px"
	 width="100%" viewBox="0 0 1024 1024" enable-background="new 0 0 1024 1024" xml:space="preserve">
<path fill="#000000" opacity="1.000000" stroke="none" 
	d="
M574.797607,404.180115 
	C577.517639,406.142029 579.817566,408.130951 582.419250,409.576965 
	C587.308228,412.294220 591.761475,410.289246 591.542542,404.862488 
	C591.278870,398.325684 593.840027,395.849762 599.950806,395.834229 
	C601.733398,395.829681 603.218445,394.795685 603.604553,392.950226 
	C604.360168,389.338531 606.954956,388.778473 609.998779,388.764160 
	C614.497253,388.742950 619.003418,388.848022 623.492004,388.618744 
	C628.347595,388.370667 632.737732,388.779114 635.689209,393.409668 
	C637.245850,395.851807 639.957947,395.765717 642.469727,395.658997 
	C645.698425,395.521759 647.443359,396.574768 647.388245,400.183502 
	C647.316589,404.880249 646.565735,409.703796 651.687866,413.041626 
	C653.552246,414.256592 653.173218,417.638123 653.184570,420.157104 
	C653.224365,428.987854 653.322266,437.818634 653.301086,446.649170 
	C653.294617,449.338623 653.654663,451.600891 656.601135,452.645508 
	C658.922180,453.468353 659.118347,455.520081 659.099548,457.594452 
	C658.809448,489.579376 658.872070,521.575073 657.902893,553.539490 
	C657.722290,559.496582 650.765076,563.596008 647.875061,569.230774 
	C647.077332,570.786255 644.192444,570.255676 642.192688,570.329895 
	C604.720947,571.720703 567.230347,571.094788 529.748535,571.405273 
	C494.434387,571.697876 459.118469,571.903076 423.808441,572.468201 
	C414.658051,572.614624 405.503418,573.238342 396.342377,573.098816 
	C386.490692,572.948792 382.683777,568.409546 383.410858,558.573547 
	C384.111603,549.094177 383.298004,539.609131 383.076660,530.122925 
	C382.637512,511.302948 382.799438,492.469666 382.445984,473.646881 
	C382.124268,456.514160 381.472809,439.387268 380.911316,422.259674 
	C380.785309,418.416016 381.070831,414.929749 385.118805,412.957550 
	C387.629547,411.734314 387.053070,409.211060 386.865845,407.171051 
	C386.426453,402.382996 388.441589,400.731842 393.172455,400.597290 
	C408.489319,400.161804 423.799591,399.380859 439.113251,400.462219 
	C442.346161,400.690460 443.687927,397.271301 446.455109,397.671814 
	C447.172302,394.595856 445.974243,391.836365 447.540161,389.525024 
	C448.593353,389.669495 448.799316,390.301178 448.989807,390.938141 
	C449.441711,392.448975 449.229523,394.662018 451.652435,394.420837 
	C453.893005,394.197845 453.690552,392.175262 453.880249,390.535645 
	C454.063965,388.947754 453.817596,387.094086 456.058044,386.528137 
	C458.286774,387.400848 458.216125,389.495789 458.006470,391.149963 
	C457.309387,396.649719 461.231384,397.434448 464.802643,397.210968 
	C478.126953,396.377136 491.442078,397.140106 504.757843,396.959381 
	C513.343872,396.842804 514.991638,396.127136 517.806580,387.817932 
	C519.163513,383.812378 520.943909,383.592346 523.950500,385.514465 
	C524.848572,386.088654 525.652771,386.539368 526.705017,386.119720 
	C534.524414,383.001770 542.915161,385.954712 550.900635,383.808624 
	C553.748352,383.043304 557.157593,383.792175 557.170532,388.160034 
	C557.177429,390.476654 558.652893,391.744904 560.264648,392.984314 
	C565.017700,396.639252 569.764465,400.302216 574.797607,404.180115 
M588.862061,526.346863 
	C595.995361,507.299957 593.725037,489.382050 580.666870,473.830963 
	C567.625366,458.299622 550.492371,451.601898 530.221313,455.452087 
	C498.017395,461.568665 479.067780,494.207062 489.791351,524.464111 
	C496.710175,543.985840 515.686646,557.750671 535.813293,559.023682 
	C560.993652,560.616272 580.850159,545.770630 588.862061,526.346863 
M476.180450,416.762817 
	C474.770844,414.651550 472.682770,414.654999 470.427094,414.687592 
	C453.508392,414.931915 436.588684,415.112091 419.668854,415.265503 
	C415.337616,415.304779 411.025818,415.371185 406.728394,416.058716 
	C401.890961,416.832642 400.427887,418.597229 401.412598,423.538788 
	C402.012360,426.548584 401.845245,429.436157 401.542023,432.445282 
	C401.160004,436.236969 400.847534,440.154266 401.392670,443.887756 
	C401.949951,447.704376 402.685455,452.067780 407.794830,452.857086 
	C421.319061,454.946381 433.636200,449.579956 446.316254,446.496094 
	C447.065735,446.313812 447.729584,445.632629 448.349060,445.087830 
	C451.160706,442.614929 454.538025,441.378174 458.097870,440.654358 
	C458.302704,433.379639 459.214508,432.591187 467.021515,432.765411 
	C467.489288,432.775848 468.004669,432.741974 468.423309,432.558502 
	C476.607117,428.972107 477.839111,426.667236 476.180450,416.762817 
M517.340454,425.679749 
	C522.884583,421.687256 529.633606,423.529297 535.662964,421.892609 
	C538.050171,421.244659 540.982239,421.459991 542.216248,417.830841 
	C539.143738,416.819885 536.399841,415.313171 533.552673,415.082947 
	C519.968628,413.984711 506.353485,413.859131 492.783112,415.354584 
	C488.574341,415.818390 486.312195,418.371887 486.445099,422.822937 
	C486.687653,430.947510 486.818207,439.075562 487.085083,447.199219 
	C487.127899,448.502716 486.407623,450.251678 488.413940,450.969666 
	C490.363525,449.681519 489.243011,447.954071 489.169495,446.419617 
	C488.854675,439.848114 491.624695,436.579559 498.095428,436.063354 
	C502.230835,435.733490 505.729675,433.942383 509.011414,431.581177 
	C511.571869,429.738922 514.129028,427.892090 517.340454,425.679749 
M613.570557,450.057831 
	C619.662659,450.255890 625.754578,450.574005 631.847046,450.585968 
	C633.938721,450.590088 635.541931,449.121216 636.463867,447.198303 
	C638.609497,442.722931 633.377014,428.910889 628.751892,426.977142 
	C627.562378,426.479797 626.170959,426.150574 624.897583,426.218597 
	C614.489014,426.774597 607.438538,440.587097 613.570557,450.057831 
M576.530579,415.613342 
	C573.945679,418.548737 576.690613,420.036713 578.253540,421.787567 
	C581.596558,425.532562 581.960876,429.998566 579.175049,434.010437 
	C574.864929,440.217407 574.854492,440.230225 580.875671,445.148254 
	C582.675781,446.618530 584.479370,448.104553 586.409180,449.391602 
	C590.217651,451.931549 592.458130,450.961304 592.606506,446.401184 
	C592.898010,437.441528 592.921326,428.475189 591.972168,419.527344 
	C591.651123,416.500824 589.960815,414.938171 587.314880,414.528320 
	C583.908997,414.000671 580.401733,413.417297 576.530579,415.613342 
M450.704437,522.923950 
	C452.262634,514.340698 451.507080,505.676056 451.560303,497.043671 
	C451.577087,494.327087 450.337524,492.014832 447.454041,491.574066 
	C445.149139,491.221771 442.907684,492.276093 442.548462,494.798279 
	C441.264221,503.814911 438.897034,512.679199 439.082886,521.913330 
	C439.181366,526.807007 443.010193,525.976196 445.723541,526.956177 
	C448.760284,528.052917 450.024261,526.371155 450.704437,522.923950 
M461.372894,446.844116 
	C460.951508,447.828400 461.443512,448.511993 462.282593,448.770905 
	C466.184845,449.975098 470.130066,450.968903 473.981842,452.424194 
	C476.803650,453.490356 478.255280,451.331421 477.737366,448.433685 
	C477.057648,444.630615 473.017242,442.495941 469.407776,444.211395 
	C466.966705,445.371582 464.387634,445.750702 461.372894,446.844116 
M449.659851,410.839844 
	C451.271820,412.285889 453.210205,412.541992 454.375458,410.746094 
	C455.844421,408.482086 456.050629,405.814484 454.919983,403.145447 
	C454.306000,401.696045 453.319061,401.167969 451.857758,401.149078 
	C450.298096,401.128937 449.545746,401.937073 448.989868,403.349945 
	C448.059082,405.715820 448.829132,407.906219 449.659851,410.839844 
z"/>
<path fill="#000000" opacity="1.000000" stroke="none" 
	d="
M592.235229,592.099121 
	C597.543518,592.009338 602.377563,592.004517 607.205933,591.834656 
	C611.621704,591.679382 616.388062,592.378174 619.091614,587.400635 
	C619.398376,586.835876 620.523926,586.569153 621.314880,586.439819 
	C624.446167,585.927917 625.970093,584.249512 625.827820,580.990784 
	C625.769226,579.648376 626.120605,578.170654 627.879333,578.101196 
	C629.650879,578.031250 630.169250,579.469849 630.096436,580.824097 
	C629.905029,584.387146 631.825928,585.511169 634.960876,586.498779 
	C638.187683,587.515137 639.387329,591.362427 643.479126,592.457092 
	C647.677429,593.580383 651.734009,594.559448 656.041382,594.702026 
	C672.687439,595.252991 689.365967,594.093567 705.992554,595.651062 
	C707.130493,595.757629 708.262756,595.923889 709.261902,596.045776 
	C709.517639,596.574463 709.791382,596.869263 709.776245,597.148560 
	C709.324280,605.516357 709.311096,605.641357 700.837463,605.052979 
	C683.721313,603.864563 666.573792,605.849487 649.461060,604.422852 
	C645.974854,604.132202 644.220947,605.989319 644.227356,609.528442 
	C644.260986,628.190674 644.217224,646.853210 644.344666,665.514709 
	C644.368286,668.970032 646.199463,672.163513 646.104675,675.780579 
	C646.012695,679.292908 644.732483,681.110962 641.237915,681.337952 
	C640.241333,681.402771 639.249939,681.558289 638.252991,681.602966 
	C633.500610,681.815796 631.701172,684.137451 631.910217,688.991394 
	C632.260925,697.136047 632.048096,705.306152 632.019226,713.465393 
	C632.009583,716.195496 631.992310,719.089172 628.133240,719.187622 
	C624.250488,719.286743 624.287964,716.434998 624.019592,713.679565 
	C623.383728,707.150452 625.268066,700.468933 622.296814,694.009827 
	C621.506592,692.291748 624.077881,690.027954 624.051270,687.512512 
	C624.012756,683.861206 622.425293,682.497437 619.016479,681.364990 
	C594.488098,673.216003 569.312927,678.210693 544.445862,677.567139 
	C532.130859,677.248474 519.729675,678.048950 507.481201,676.747009 
	C494.867737,675.406372 482.509888,677.095276 470.160339,678.546448 
	C460.011963,679.739014 450.254700,678.171204 440.373779,676.835510 
	C438.727478,676.612976 437.066162,676.437073 435.407166,676.383301 
	C426.756012,676.102844 423.923737,678.415283 422.071442,687.142273 
	C421.865356,688.113281 421.548950,689.062744 421.252075,690.012268 
	C420.895355,691.153259 420.461121,692.260864 419.021271,692.362183 
	C417.254059,692.486450 416.693939,691.146118 416.424408,689.856812 
	C415.659393,686.197815 413.953644,683.198059 411.404114,680.407410 
	C408.686646,677.432983 402.208893,676.165527 398.877136,678.485168 
	C396.681274,680.013977 397.573761,681.940002 397.980804,683.882935 
	C399.394714,690.632385 400.545319,697.342041 396.523834,703.741394 
	C394.623077,706.766052 392.309509,708.643616 387.440704,708.156006 
	C393.268280,702.935608 391.502625,697.439880 390.161652,691.679810 
	C387.899933,681.964783 395.167114,670.927307 404.976532,668.770996 
	C409.335388,667.812866 411.049286,665.487732 410.922668,661.068604 
	C410.459900,644.917480 411.392914,628.607971 409.367981,612.667053 
	C408.255890,603.912292 404.956665,596.264099 413.695099,589.919800 
	C414.322144,589.464539 414.265808,588.056641 414.509186,587.087219 
	C414.809235,585.892029 415.228699,584.836243 416.754547,584.909302 
	C417.954865,584.966675 418.639252,585.800598 418.807404,586.777344 
	C419.905762,593.156494 424.532806,593.452881 429.445068,592.833740 
	C447.162689,590.600830 464.993774,590.299500 482.791473,590.134338 
	C498.074738,589.992432 513.369202,592.302856 528.602173,592.192810 
	C549.655151,592.040710 570.716858,593.923035 592.235229,592.099121 
M524.272644,639.496338 
	C524.256348,647.154541 524.252869,654.813171 525.119446,662.437622 
	C525.394531,664.857361 526.558472,666.576660 529.197510,666.625793 
	C532.181641,666.681458 532.682373,664.483459 532.710266,662.193115 
	C532.779236,656.533447 532.818787,650.870667 532.713013,645.212097 
	C532.479675,632.731873 532.156189,620.253296 531.852539,607.774414 
	C531.796387,605.467285 531.364990,603.352295 528.441772,603.179321 
	C525.390747,602.998779 524.355042,604.917603 524.147827,607.534668 
	C524.029907,609.024902 524.038452,610.528198 524.048950,612.025146 
	C524.110779,620.849304 524.190002,629.673340 524.272644,639.496338 
M442.144165,604.679626 
	C464.496124,604.269470 486.848053,603.859314 509.200012,603.449158 
	C509.185394,602.835754 509.170807,602.222351 509.156189,601.608948 
	C485.470642,598.413025 461.871582,600.879395 437.606873,602.299316 
	C438.941620,604.942810 440.231201,604.540588 442.144165,604.679626 
z"/>
<path fill="#000000" opacity="1.000000" stroke="none" 
	d="
M785.077637,697.044861 
	C785.151611,702.697021 785.148071,707.858643 785.303528,713.015442 
	C785.400146,716.220764 784.054016,717.346497 780.836182,717.372864 
	C772.677368,717.439941 764.563782,718.237549 756.609070,720.168884 
	C745.425598,722.884094 734.438538,720.260376 723.408569,718.990295 
	C720.543396,718.660461 720.526062,716.401123 720.508362,714.070068 
	C720.329224,690.441101 720.090454,666.812622 719.823792,643.184509 
	C719.795715,640.695862 719.416748,638.212830 719.325195,635.722595 
	C719.269287,634.202698 719.513245,632.651062 721.026062,631.817993 
	C722.590881,630.956360 723.799866,631.675537 725.031677,632.774780 
	C728.280762,635.674194 732.482971,635.217102 736.369690,635.640808 
	C746.589050,636.754761 756.547607,634.030029 766.649658,633.352295 
	C770.298401,633.107544 773.960632,633.056824 777.606873,632.785095 
	C782.256592,632.438538 784.239868,634.366333 784.178833,639.149902 
	C784.042908,649.800415 784.164795,660.456482 784.330139,671.107971 
	C784.461792,679.591187 784.813354,688.070923 785.077637,697.044861 
M745.384277,640.189331 
	C741.905945,640.038635 738.399963,640.109436 734.956726,639.678467 
	C731.093262,639.194885 728.281128,640.086121 727.488525,644.220337 
	C726.861389,647.492126 729.811951,650.435974 733.984985,650.858765 
	C738.692383,651.335754 743.246887,650.686401 747.650208,648.888733 
	C750.677063,647.652954 753.157166,645.639832 752.569519,642.278015 
	C751.942932,638.693481 748.562317,640.511475 745.384277,640.189331 
M737.693115,696.193726 
	C736.700684,696.163757 735.708496,696.123474 734.715820,696.105713 
	C731.574768,696.049438 728.868713,697.109009 728.509216,700.473022 
	C728.120178,704.113464 730.935547,706.063293 733.986267,706.397217 
	C739.229492,706.970947 744.565796,706.423462 749.696106,705.225037 
	C752.283936,704.620483 753.678894,702.125977 753.312866,699.393616 
	C752.922668,696.481506 750.632019,696.029724 748.068665,696.131775 
	C744.929260,696.256775 741.782593,696.202332 737.693115,696.193726 
z"/>
<path fill="#000000" opacity="1.000000" stroke="none" 
	d="
M326.381592,585.905823 
	C326.456543,589.559326 325.753601,592.622803 325.332672,595.731750 
	C324.530151,601.659241 321.069397,602.309387 316.210724,602.064209 
	C291.258820,600.805054 266.276886,601.425110 241.309708,601.052429 
	C228.983582,600.868408 228.076370,600.276733 227.855942,588.101013 
	C227.735580,581.453430 228.261734,574.796509 228.374496,568.141785 
	C228.538055,558.488525 228.731125,548.831848 228.619141,539.180054 
	C228.577591,535.599731 229.695877,532.306519 230.182495,528.868530 
	C230.569305,526.135681 232.812881,525.730286 235.119446,525.752319 
	C252.266006,525.916077 269.412506,526.087280 286.558990,526.260864 
	C297.709808,526.373779 308.860962,526.595093 320.011169,526.555115 
	C323.773376,526.541687 324.939819,527.838501 325.443756,531.698669 
	C327.780182,549.594788 326.211853,567.515686 326.381592,585.905823 
M252.298157,530.409119 
	C249.137909,530.947937 248.442795,533.326477 248.389206,535.957947 
	C248.012955,554.435608 247.712570,572.914673 247.349548,591.392578 
	C247.271301,595.375916 249.023499,596.972595 253.079575,596.997803 
	C264.898346,597.071411 276.714386,597.506104 288.533264,597.667725 
	C296.657013,597.778870 297.512360,597.014526 297.602081,589.003174 
	C297.798004,571.516479 297.751587,554.027039 297.962189,536.540588 
	C298.017151,531.974426 295.959503,530.279419 291.631256,530.303894 
	C278.807556,530.376404 265.983185,530.329407 252.298157,530.409119 
z"/>
<path fill="#000000" opacity="1.000000" stroke="none" 
	d="
M454.168579,714.817261 
	C458.139282,714.795898 461.642883,714.914795 465.127960,714.713257 
	C470.005798,714.431091 473.403687,711.335571 472.633057,706.686646 
	C471.276947,698.505615 475.154297,691.061096 475.039368,683.128906 
	C475.023010,681.999084 475.345856,680.606567 476.879517,680.616394 
	C478.717041,680.628113 478.842255,682.062134 478.768524,683.475647 
	C478.742615,683.972168 478.605774,684.462158 478.567383,684.958862 
	C478.023315,692.004089 479.519989,693.156189 486.072845,690.907715 
	C487.623169,690.375793 489.285767,689.954407 490.911896,689.894592 
	C503.051208,689.447876 515.192383,689.005737 527.336975,688.762817 
	C536.062012,688.588196 537.034119,689.670227 537.178711,698.334473 
	C537.203796,699.832397 537.171326,701.332031 537.226562,702.828552 
	C537.428650,708.298523 539.734070,710.298401 545.304565,710.716919 
	C555.639465,711.493286 565.916138,710.572388 576.111694,709.375977 
	C585.223145,708.306763 593.423462,710.772827 601.687378,713.732849 
	C603.493652,714.379761 604.286255,715.674805 604.238525,717.562561 
	C604.201721,719.016907 603.735229,720.658997 602.208740,720.488098 
	C596.352417,719.832092 591.511292,722.348877 586.711975,725.014160 
	C581.100037,728.130737 575.487244,726.295410 569.957458,725.052979 
	C564.500977,723.827087 559.040100,724.216492 553.566711,724.226135 
	C540.915283,724.248352 528.263916,724.303467 515.612488,724.357239 
	C512.461731,724.370605 509.255127,724.101746 506.563477,726.345093 
	C506.104370,726.727783 505.240021,727.056641 504.735596,726.889404 
	C492.402405,722.801270 479.753876,726.144043 467.286865,725.285217 
	C462.814758,724.977173 458.301361,725.287964 453.806915,725.275208 
	C452.322693,725.270935 450.617584,725.469177 449.678864,724.050659 
	C448.299744,721.966614 444.614960,720.936951 445.883759,717.650024 
	C447.262665,714.078003 450.870331,715.208313 454.168579,714.817261 
z"/>
<path fill="#000000" opacity="1.000000" stroke="none" 
	d="
M552.776367,334.108215 
	C550.262817,338.450714 551.051758,342.783508 551.717346,346.993347 
	C552.074341,349.251465 553.744995,350.833954 556.368530,350.631409 
	C559.959717,350.354187 562.243042,352.370758 561.637085,355.531830 
	C561.084045,358.417145 560.290466,362.292725 555.684937,362.221191 
	C550.354126,362.138336 544.969360,362.345673 539.820923,360.793396 
	C536.277466,359.725037 532.824219,358.850555 528.866821,359.347900 
	C529.798645,358.720184 530.730469,358.092499 532.070068,357.190186 
	C529.206177,355.503723 526.580933,356.181213 524.097290,356.604523 
	C519.459717,357.394867 514.802246,357.135071 510.148834,357.255615 
	C506.145081,357.359314 504.867249,355.051697 505.061615,351.535461 
	C505.612122,341.576111 506.381592,331.625702 506.728363,321.660034 
	C506.847137,318.246399 508.004822,316.084564 510.935974,314.450623 
	C519.220947,309.832245 527.438110,305.091400 535.645447,300.335602 
	C537.648926,299.174652 539.354980,299.450409 541.214966,300.649567 
	C549.468811,305.970917 557.794495,311.181183 566.033508,316.525116 
	C570.058228,319.135651 571.871948,325.948120 569.821106,330.230652 
	C568.590393,332.800720 565.976685,332.442078 563.780090,332.942383 
	C560.247131,333.747162 556.473999,331.694336 552.776367,334.108215 
z"/>
<path fill="#000000" opacity="1.000000" stroke="none" 
	d="
M654.933960,653.087280 
	C654.899597,651.105103 654.810974,649.603638 654.880432,648.109497 
	C655.216675,640.877380 659.469849,637.856262 666.263977,640.336365 
	C670.251953,641.792175 675.024963,642.560669 675.139526,648.623901 
	C675.174194,650.455200 676.958496,652.635559 678.764526,653.124023 
	C685.025635,654.817200 690.242981,659.147766 696.878540,659.875916 
	C703.911560,660.647644 707.377502,663.279907 708.481873,668.833496 
	C700.235413,666.895752 691.883423,667.988953 684.070923,664.861328 
	C678.294617,662.548828 676.302612,663.748962 676.249573,669.856262 
	C676.183044,677.514160 676.244873,685.175293 676.394775,692.832214 
	C676.501099,698.260315 678.333679,700.061707 683.899048,700.768860 
	C685.713501,700.999451 687.509338,701.470337 689.327332,701.562927 
	C694.351501,701.818665 694.007690,705.513672 693.892334,708.803772 
	C693.752441,712.794678 690.780273,712.385803 688.038818,712.092468 
	C685.564514,711.827698 683.094116,711.513733 680.614502,711.316223 
	C679.266907,711.208923 677.367920,711.277161 676.963257,712.419189 
	C675.271240,717.194702 668.488708,716.971313 667.503113,722.573730 
	C667.172302,724.454102 664.826416,724.005432 664.252869,722.222046 
	C662.229858,715.931213 659.247681,710.097534 662.902161,702.842529 
	C666.587219,695.526550 664.424194,687.138062 663.597412,679.218384 
	C663.384216,677.176025 661.457214,676.360718 659.585754,675.965332 
	C655.791443,675.163757 654.516296,672.715820 654.658203,669.045166 
	C654.857605,663.891174 654.863770,658.729736 654.933960,653.087280 
z"/>
<path fill="#000000" opacity="1.000000" stroke="none" 
	d="
M348.994934,621.113525 
	C349.369354,639.570251 349.439484,657.555115 350.289581,675.503113 
	C350.547058,680.938965 346.648621,683.794495 345.118713,688.022278 
	C344.655182,689.303284 342.886597,689.302002 342.240265,688.150635 
	C340.042389,684.235840 336.319092,681.326050 336.542755,675.878418 
	C336.922333,666.632202 337.105804,657.296753 335.381378,648.093628 
	C332.680542,647.338928 331.659515,649.455444 330.239563,650.646118 
	C325.424286,654.683899 319.947052,656.869934 313.663086,656.061646 
	C305.135101,654.964844 299.741943,650.230408 297.987183,642.810791 
	C295.947784,634.187622 298.785950,625.862976 305.266479,621.460022 
	C312.209686,616.742615 320.306702,616.753784 327.324280,621.330078 
	C329.310303,622.625244 331.093933,625.663757 333.724762,624.183350 
	C336.613983,622.557556 335.505432,619.150818 335.427307,616.396729 
	C335.219696,609.079285 334.791168,601.763672 334.778992,594.446716 
	C334.771393,589.877136 338.104828,586.366699 339.660339,582.267700 
	C340.525421,579.987976 342.317841,581.591736 343.503937,583.490967 
	C347.590118,590.034058 348.965363,597.011597 348.479004,604.675476 
	C348.143555,609.960754 348.785126,615.307983 348.994934,621.113525 
M329.572906,627.018860 
	C328.259003,625.238770 326.523865,623.944702 324.618286,622.894531 
	C318.494446,619.519714 312.460541,619.694336 306.807129,623.851868 
	C300.751373,628.305237 299.205780,634.540039 300.629486,641.620056 
	C301.968750,648.279907 306.444702,651.945679 312.849640,653.259460 
	C319.625824,654.649414 325.534515,652.710327 329.719269,647.174194 
	C334.474701,640.883118 334.138855,634.204590 329.572906,627.018860 
z"/>
<path fill="#000000" opacity="1.000000" stroke="none" 
	d="
M393.885468,360.206055 
	C383.505219,361.899261 375.240936,358.851044 369.665497,350.405579 
	C364.254547,342.209381 364.071747,333.499329 369.462189,325.061188 
	C374.851257,316.625183 385.431305,312.841827 395.241577,315.633820 
	C404.727509,318.333557 411.769867,327.364227 412.207062,337.389343 
	C412.636353,347.232605 406.489380,355.957886 396.675385,359.418060 
	C395.892670,359.694000 395.084869,359.898804 393.885468,360.206055 
M396.996368,342.189453 
	C398.670135,338.358185 398.593719,334.661255 395.438324,331.678864 
	C392.982178,329.357361 390.101074,327.757629 386.433472,329.115875 
	C382.240448,330.668701 379.798828,333.738098 379.735992,338.054596 
	C379.682373,341.738464 381.687958,344.828125 385.240356,346.215912 
	C389.742676,347.974762 393.696106,346.965698 396.996368,342.189453 
z"/>
<path fill="#000000" opacity="1.000000" stroke="none" 
	d="
M316.998657,720.358887 
	C317.124207,717.835571 318.026245,716.181458 320.213379,716.142090 
	C324.710297,716.061340 329.479065,714.186829 333.443512,718.223145 
	C335.101227,719.911011 337.417084,719.464844 338.855560,717.900269 
	C341.051819,715.511536 343.814545,715.246704 346.610962,715.201416 
	C371.256317,714.802246 395.875854,712.887146 420.545319,713.912842 
	C421.044830,713.933594 421.552246,713.907959 422.042236,713.988098 
	C424.215881,714.343628 427.002197,713.369141 428.101685,716.247009 
	C429.290375,719.358459 426.789276,720.617310 424.559540,721.904236 
	C424.856903,722.525635 424.952362,723.177673 425.269165,723.313477 
	C427.285431,724.177917 428.703400,725.348511 428.206818,727.825623 
	C427.639648,730.654541 425.338074,730.220093 423.439911,730.226990 
	C411.109467,730.271912 398.777222,730.356445 386.448425,730.201965 
	C366.144135,729.947693 345.856934,730.343628 325.571320,731.193909 
	C316.996826,731.553345 316.990082,731.413513 316.947266,722.805054 
	C316.943939,722.138611 316.964905,721.472046 316.998657,720.358887 
M372.413300,724.572815 
	C374.143494,726.319092 376.370972,726.068176 378.513397,726.035889 
	C384.996185,725.938293 391.478088,725.782166 397.960724,725.669373 
	C400.747864,725.620850 403.668762,725.494202 403.686768,721.772278 
	C403.705292,717.930847 400.759430,717.486389 397.744995,717.340393 
	C390.579742,716.993347 383.462738,717.790405 376.347412,718.351868 
	C373.266754,718.594910 370.910309,720.134277 372.413300,724.572815 
M415.461823,719.804138 
	C413.301910,720.252136 411.141998,720.700073 408.787262,721.188477 
	C409.976685,723.535828 412.119110,722.976868 413.624664,723.724976 
	C414.770477,724.294373 416.188507,725.021484 417.159821,723.592896 
	C418.169586,722.107788 417.576843,720.803955 415.461823,719.804138 
z"/>
<path fill="#000000" opacity="1.000000" stroke="none" 
	d="
M296.333496,357.199097 
	C283.978088,350.907471 279.527832,339.415558 285.093597,329.052490 
	C289.701050,320.473785 299.872101,316.521667 308.973419,319.773560 
	C318.583710,323.207367 324.722717,333.113373 323.024597,342.446777 
	C321.235046,352.282990 312.952972,358.774597 302.580841,358.331573 
	C300.616943,358.247681 298.674072,357.671753 296.333496,357.199097 
z"/>
<path fill="#000000" opacity="1.000000" stroke="none" 
	d="
M241.786026,345.026550 
	C247.414856,337.452728 254.631592,334.664062 263.445374,336.584747 
	C272.956635,338.657410 277.647797,345.418091 279.312347,354.422943 
	C281.461517,366.049164 266.999359,377.910217 254.595474,374.915070 
	C240.742401,371.569977 234.983215,358.471893 241.786026,345.026550 
M246.409424,354.968933 
	C245.943588,357.601837 246.859177,359.891022 248.215210,362.051544 
	C251.507614,367.297150 258.168884,369.224121 263.517395,366.499451 
	C268.933685,363.740265 271.795776,356.325806 269.525574,350.952423 
	C267.609161,346.416443 264.324677,343.686432 259.307983,343.417419 
	C254.651413,343.167755 251.401749,345.526672 249.104446,349.359314 
	C248.166870,350.923492 247.414062,352.598419 246.409424,354.968933 
z"/>
<path fill="#000000" opacity="1.000000" stroke="none" 
	d="
M337.804382,420.217285 
	C326.884583,419.971039 319.958588,412.104858 321.837189,402.593353 
	C322.950043,396.958649 328.578430,391.920898 334.293915,391.443817 
	C343.087280,390.709839 350.059540,395.082520 351.061951,401.959991 
	C352.542084,412.115448 348.099335,418.433197 337.804382,420.217285 
z"/>
<path fill="#000000" opacity="1.000000" stroke="none" 
	d="
M779.984497,356.868988 
	C779.944824,349.563812 779.784241,342.735718 779.916504,335.913361 
	C779.997681,331.725098 778.918579,329.443909 774.145386,330.640320 
	C771.528076,331.296387 768.937988,330.686279 766.501648,329.069763 
	C771.493164,327.345306 776.545410,327.396912 781.526611,329.041931 
	C783.287964,329.623566 783.437866,331.701141 783.589905,333.333527 
	C784.544556,343.588409 783.915344,353.935242 785.757568,364.170471 
	C786.289734,367.126740 784.227905,369.960327 780.475342,370.253174 
	C764.355957,371.511108 748.209900,371.029114 732.071960,370.921234 
	C728.058594,370.894409 725.996399,368.692596 726.075745,364.584717 
	C726.277588,354.119049 726.264526,343.672424 725.117310,333.231293 
	C724.649597,328.973877 727.767883,327.361145 733.024841,329.049622 
	C727.547607,333.793823 731.259888,339.933258 730.345947,345.443970 
	C729.432800,350.950165 730.214050,356.730804 730.169617,362.390442 
	C730.147583,365.203735 731.154419,366.782654 734.222900,366.753113 
	C746.704346,366.632935 759.194641,366.828552 771.665527,366.418915 
	C779.968262,366.146179 779.956116,365.775940 779.984497,356.868988 
z"/>
<path fill="#000000" opacity="1.000000" stroke="none" 
	d="
M291.100403,688.134277 
	C291.195892,691.600769 291.324097,694.587463 291.324463,697.574158 
	C291.325073,702.562439 289.893707,703.710632 284.200836,704.148499 
	C279.815674,704.485840 278.286316,702.219604 277.945374,698.316772 
	C277.064392,688.231750 276.513397,678.148865 276.532104,668.009094 
	C276.544067,661.509521 281.168030,662.729614 284.803101,662.233032 
	C288.946381,661.666992 289.762115,664.381531 289.918121,667.781067 
	C290.222351,674.409302 290.681000,681.030396 291.100403,688.134277 
z"/>
<path fill="#000000" opacity="1.000000" stroke="none" 
	d="
M710.747864,369.301697 
	C696.792419,369.181366 683.308655,369.136322 669.827332,368.932251 
	C661.841003,368.811340 660.760437,367.528687 660.786011,359.399017 
	C660.812683,350.909790 660.740967,342.420105 660.802429,333.931244 
	C660.843872,328.202423 662.232300,326.749512 667.844604,326.748138 
	C681.993652,326.744690 696.143188,326.800690 710.291626,326.929749 
	C716.635437,326.987610 718.169739,328.584930 718.220764,335.036407 
	C718.291809,344.024689 718.284485,353.014374 718.216614,362.002747 
	C718.173096,367.770752 717.136475,368.771149 710.747864,369.301697 
M678.508972,365.954987 
	C688.827820,365.992737 699.146973,365.999023 709.465393,366.086395 
	C712.787964,366.114502 714.920593,365.139648 714.883911,361.314209 
	C714.797852,352.328857 714.818665,343.342346 714.826965,334.356323 
	C714.829712,331.423889 713.367981,330.198944 710.506287,330.152954 
	C696.698547,329.931152 682.891052,329.681122 669.085205,329.367523 
	C665.469971,329.285461 663.965393,330.897919 664.023865,334.467682 
	C664.122009,340.457458 664.043152,346.450165 664.033691,352.441650 
	C664.012390,365.908356 664.011047,365.908356 678.508972,365.954987 
z"/>
<path fill="#000000" opacity="1.000000" stroke="none" 
	d="
M259.174896,455.520325 
	C256.529907,447.841522 257.092590,440.086212 258.123779,432.721527 
	C258.758026,428.192078 264.491455,429.998596 268.030731,429.949036 
	C270.879150,429.909088 275.406921,428.421722 275.907196,432.836639 
	C276.819183,440.884705 276.765778,449.048096 276.961914,457.167053 
	C277.007812,459.066437 275.641754,460.246246 273.697601,460.179962 
	C269.626678,460.041016 264.985382,461.894684 262.196381,456.904236 
	C261.820282,456.231232 260.436340,456.121521 259.174896,455.520325 
z"/>
<path fill="#000000" opacity="1.000000" stroke="none" 
	d="
M261.243591,496.386658 
	C259.418182,489.868073 259.565155,483.506042 258.836487,477.248230 
	C258.446289,473.897583 260.115875,472.297119 263.308228,471.993439 
	C263.473816,471.977692 263.638458,471.944214 263.804199,471.938599 
	C279.399689,471.412384 276.678741,470.668549 277.366974,483.468445 
	C277.590027,487.617065 278.010590,491.756409 278.170105,495.906586 
	C278.262115,498.301086 278.957123,501.587158 275.420624,501.843018 
	C271.902618,502.097504 267.641083,504.303772 264.970856,500.109314 
	C263.996918,498.579468 262.301300,498.169159 261.243591,496.386658 
z"/>
<path fill="#000000" opacity="1.000000" stroke="none" 
	d="
M265.365540,702.653809 
	C262.628174,709.039612 261.576202,709.299438 256.423706,705.190063 
	C245.318756,696.333252 243.100662,681.548157 251.142914,669.997131 
	C253.074875,667.222290 255.565643,665.776550 258.779755,667.607910 
	C261.769836,669.311646 262.396698,672.438049 260.524414,674.906860 
	C252.887817,684.976807 255.700165,692.949585 264.801453,700.051514 
	C265.299225,700.439941 265.242798,701.538574 265.365540,702.653809 
z"/>
<path fill="#000000" opacity="1.000000" stroke="none" 
	d="
M349.164978,353.663818 
	C355.969086,360.915924 356.200531,369.564697 350.032135,375.027374 
	C344.066498,380.310547 334.647400,379.595734 329.537842,373.472046 
	C325.292206,368.383759 325.277374,360.481964 329.504272,355.576294 
	C334.350098,349.952301 341.383789,349.172424 349.164978,353.663818 
M345.758118,358.661011 
	C345.095581,358.173737 344.490631,357.564850 343.761017,357.219086 
	C339.363953,355.135406 334.790192,356.623871 332.810242,360.725037 
	C330.810913,364.866364 332.368256,369.756958 336.335144,371.794556 
	C340.376740,373.870514 344.910126,372.295288 347.234497,367.995819 
	C348.939148,364.842712 348.261505,361.947876 345.758118,358.661011 
z"/>
<path fill="#000000" opacity="1.000000" stroke="none" 
	d="
M720.662659,551.777100 
	C719.076965,552.634888 717.742432,553.237183 716.407837,553.839417 
	C715.920593,561.419250 713.690979,562.478516 707.150574,558.223633 
	C704.508972,556.505188 701.859619,554.797180 699.256592,553.021667 
	C697.234985,551.642700 694.669556,550.528198 694.907959,547.492981 
	C695.135864,544.591553 697.928223,544.338074 699.856628,543.325989 
	C700.190857,536.335510 702.667908,534.916321 708.403320,538.472839 
	C711.925232,540.656738 715.369019,542.973816 718.768860,545.344543 
	C720.903564,546.833130 722.740479,548.583862 720.662659,551.777100 
z"/>
<path fill="#000000" opacity="1.000000" stroke="none" 
	d="
M266.118958,648.216187 
	C258.237732,642.263977 256.544342,634.761719 261.186584,627.671509 
	C265.564545,620.984924 274.829742,619.029846 281.880188,623.304749 
	C288.596863,627.377380 290.862152,635.836304 287.122864,642.881958 
	C283.241974,650.194336 275.174500,652.351318 266.118958,648.216187 
M283.486603,633.260986 
	C280.771210,627.067688 276.188507,624.446960 271.131775,626.195618 
	C266.351868,627.848511 262.736786,633.085510 263.511810,637.234253 
	C264.466827,642.346558 270.053009,646.283325 275.473785,645.664185 
	C280.945435,645.039124 283.759857,641.022522 283.486603,633.260986 
z"/>
<path fill="#000000" opacity="1.000000" stroke="none" 
	d="
M741.584351,580.726440 
	C730.583984,585.944885 719.483643,587.456787 707.761536,584.727112 
	C724.857239,583.882996 741.095642,580.822205 754.810181,569.565430 
	C768.720276,558.148132 776.509705,543.872253 776.327881,525.361023 
	C778.827209,528.021118 778.275635,530.856567 778.264099,533.532471 
	C778.251038,536.572327 778.907104,538.609924 782.583008,538.834473 
	C785.357117,539.004028 787.509216,540.769714 786.620483,543.853638 
	C785.733887,546.930237 783.121704,547.890747 780.240601,546.609558 
	C778.082581,545.649902 776.233459,545.153625 775.514404,547.879150 
	C772.903320,557.776062 765.381409,563.682007 757.955566,569.582947 
	C752.888855,573.609192 747.843140,577.744995 741.584351,580.726440 
z"/>
<path fill="#000000" opacity="1.000000" stroke="none" 
	d="
M444.845642,345.792847 
	C447.035645,344.002014 449.388641,343.403229 450.846069,345.535492 
	C454.208008,350.454041 459.442780,353.331573 463.272644,357.687958 
	C463.795959,358.283234 464.474335,358.852081 464.134918,359.928802 
	C462.016937,360.324188 460.926086,358.580872 459.589233,357.545227 
	C452.000916,351.666687 446.010315,351.691681 438.748962,358.177582 
	C433.428802,362.929535 428.249756,367.847595 424.172760,373.812073 
	C422.153931,376.765533 419.957458,379.740143 415.852081,380.624969 
	C413.726196,377.037781 415.621277,374.689148 417.766205,372.617188 
	C424.573944,366.041016 431.410034,359.489990 438.394226,353.103241 
	C440.744812,350.953705 442.943542,348.768616 444.845642,345.792847 
z"/>
<path fill="#000000" opacity="1.000000" stroke="none" 
	d="
M724.906433,510.160278 
	C729.471619,512.520325 733.808655,514.624817 737.819763,517.230835 
	C741.528381,519.640442 741.771545,523.981506 741.600342,527.742859 
	C741.475952,530.475342 738.547974,531.712280 735.854309,531.058655 
	C732.938416,530.351074 731.291443,528.155762 732.166992,525.060181 
	C732.809875,522.787292 734.092773,520.763794 731.230408,519.047058 
	C728.372131,517.332764 726.289551,518.252441 724.263000,520.482971 
	C722.519104,522.402466 720.265198,522.814758 717.913818,521.728088 
	C716.164673,520.919739 714.919556,519.495605 714.988464,517.469543 
	C715.078247,514.829956 716.620544,513.362549 719.153748,512.583557 
	C721.023193,512.008728 722.747253,510.960632 724.906433,510.160278 
z"/>
<path fill="#000000" opacity="1.000000" stroke="none" 
	d="
M740.138489,431.994812 
	C726.295410,432.835144 725.735229,433.232971 725.785950,418.959106 
	C725.811890,411.655945 725.240784,404.347717 724.841858,397.047119 
	C724.599304,392.606964 726.577087,390.129456 730.957092,389.517761 
	C736.587280,388.731567 742.075989,389.901306 747.645508,390.616943 
	C744.142761,393.182251 740.157349,392.039154 736.421570,392.209778 
	C729.857666,392.509613 728.965088,393.180023 728.994263,399.801239 
	C729.027893,407.435699 729.164673,415.069611 729.239685,422.703949 
	C729.306274,429.482727 730.034302,430.274323 736.986938,430.849426 
	C738.928101,431.010010 740.877625,431.069000 742.829224,431.789734 
	C742.059998,431.857269 741.290833,431.924805 740.138489,431.994812 
z"/>
<path fill="#000000" opacity="1.000000" stroke="none" 
	d="
M714.185547,422.650787 
	C714.222717,423.931244 714.222168,424.766174 714.316895,425.590149 
	C715.043030,431.907593 713.091248,433.413208 704.782532,431.037720 
	C712.865723,429.953308 712.148865,424.819061 712.029297,420.241486 
	C711.825500,412.437958 711.284851,404.643463 710.910400,396.843994 
	C710.742920,393.355682 708.861267,392.420227 705.583191,392.687408 
	C700.845703,393.073547 696.027588,393.582397 691.478455,391.091553 
	C698.138977,389.159668 704.924194,389.006439 711.652588,390.374573 
	C714.041321,390.860260 714.267029,393.511749 714.256653,395.784088 
	C714.216614,404.589355 714.210693,413.394806 714.185547,422.650787 
z"/>
<path fill="#000000" opacity="1.000000" stroke="none" 
	d="
M735.518921,472.533844 
	C734.403442,471.756866 733.551392,471.224060 732.779785,470.592896 
	C730.815796,468.986542 729.366516,467.080505 731.319397,464.652802 
	C733.117188,462.417847 735.387390,462.789062 737.573669,464.234711 
	C741.603577,466.899414 745.646606,469.545258 749.639465,472.264648 
	C751.557983,473.571198 753.015686,475.257538 751.586609,477.701355 
	C750.090454,480.259949 747.777710,480.215546 745.525085,478.886780 
	C742.227295,476.941498 739.048523,474.794342 735.518921,472.533844 
z"/>
<path fill="#000000" opacity="1.000000" stroke="none" 
	d="
M745.350220,548.548706 
	C747.940430,551.302917 746.843872,555.289551 750.012268,557.669861 
	C746.802856,560.522156 743.275330,561.782166 739.546387,562.126648 
	C736.435669,562.413879 734.280457,561.215210 735.619263,557.394104 
	C735.941345,556.474915 735.958435,555.446960 736.099670,554.466675 
	C737.231628,546.610413 737.470154,546.445557 745.350220,548.548706 
z"/>
<path fill="#000000" opacity="1.000000" stroke="none" 
	d="
M699.040161,495.082886 
	C694.238892,498.617737 688.830200,500.629272 684.609009,504.824219 
	C685.313721,506.149933 685.969788,507.384216 687.040833,509.398987 
	C683.862488,508.446655 682.131042,507.107574 681.609802,504.687378 
	C681.022034,501.958344 683.335022,501.019318 685.095947,499.845215 
	C692.543823,494.879303 700.039673,489.984344 707.447205,484.959229 
	C710.990662,482.555420 714.804138,481.340851 720.375671,481.388702 
	C712.034790,485.279938 706.224304,490.871460 699.040161,495.082886 
z"/>
<path fill="#000000" opacity="1.000000" stroke="none" 
	d="
M715.361206,491.365601 
	C715.526184,496.460754 713.306030,501.011749 714.030273,506.028900 
	C714.419861,508.727509 711.712036,508.902344 709.732300,508.851624 
	C706.952942,508.780426 703.776917,508.956757 702.914795,505.329346 
	C702.345764,502.935303 703.139771,501.044586 705.980530,500.701935 
	C706.786804,500.604645 707.587585,500.462585 708.659851,500.300385 
	C706.504272,497.587616 711.080750,494.512634 707.209045,492.184479 
	C709.998657,490.055267 712.571350,490.604340 715.361206,491.365601 
z"/>
<path fill="#000000" opacity="1.000000" stroke="none" 
	d="
M783.729736,428.088013 
	C781.627075,427.644348 782.128967,426.103241 782.070984,424.868408 
	C781.641968,415.725861 781.302917,406.578949 780.833923,397.438568 
	C780.717285,395.165436 780.228699,392.911346 779.865479,390.323853 
	C782.869995,389.751709 784.142578,391.563965 784.353027,393.721405 
	C785.465515,405.124298 785.802429,416.543030 783.729736,428.088013 
z"/>
<path fill="#000000" opacity="1.000000" stroke="none" 
	d="
M760.450195,586.629395 
	C757.566040,587.013062 756.463074,585.261902 755.973816,583.320679 
	C755.481140,581.366211 757.301086,580.524719 758.629211,579.574707 
	C759.165710,579.190918 759.710205,578.818604 760.247192,578.435608 
	C766.121216,574.246155 766.112549,574.252258 770.471008,579.955872 
	C771.458435,581.248108 773.039185,582.494385 771.612122,584.227234 
	C770.433533,585.658203 768.627808,586.759521 766.813477,585.686768 
	C764.413818,584.267944 762.751831,585.994690 760.450195,586.629395 
z"/>
<path fill="#000000" opacity="1.000000" stroke="none" 
	d="
M590.297974,333.944458 
	C590.517944,343.093140 591.133972,351.865204 588.483765,360.527924 
	C584.704956,354.756897 585.458374,330.304871 589.588196,326.711365 
	C592.178162,328.755768 590.050232,331.305634 590.297974,333.944458 
z"/>
<path fill="#000000" opacity="1.000000" stroke="none" 
	d="
M644.138062,349.438446 
	C643.580017,355.070526 644.950623,360.372986 642.759216,365.514221 
	C641.856934,353.302032 643.515381,340.892975 639.958069,328.506470 
	C643.204163,326.666687 645.152954,328.063599 645.741577,331.756653 
	C646.672974,337.601807 645.676575,343.326324 644.138062,349.438446 
z"/>
<path fill="#000000" opacity="1.000000" stroke="none" 
	d="
M758.459656,472.911011 
	C764.053894,470.932129 769.576294,471.850739 774.961792,471.228455 
	C776.479675,471.053070 777.950928,471.914337 778.126099,473.727539 
	C778.327515,475.811462 776.894958,476.811005 775.130249,476.970703 
	C770.365540,477.401855 765.580322,477.877014 760.807007,477.840363 
	C758.034119,477.819092 756.486511,476.167145 758.459656,472.911011 
z"/>
<path fill="#000000" opacity="1.000000" stroke="none" 
	d="
M710.145142,526.682617 
	C711.697083,527.351746 713.067993,527.720215 714.009094,528.566711 
	C715.475830,529.885925 715.846008,531.775330 715.043823,533.597778 
	C714.182373,535.554749 712.385559,535.314880 710.737427,534.873718 
	C708.820984,534.360840 706.825867,533.924683 705.083984,533.029114 
	C702.619080,531.761780 702.015015,529.047058 703.122437,527.011353 
	C704.729614,524.056885 707.489563,526.299744 710.145142,526.682617 
z"/>
<path fill="#000000" opacity="1.000000" stroke="none" 
	d="
M301.425598,401.851929 
	C302.007690,405.347412 302.511475,408.445648 302.835632,411.562561 
	C303.002625,413.168060 302.363495,414.592957 300.625000,414.960297 
	C298.545959,415.399658 297.934387,413.753601 297.908783,412.281982 
	C297.846619,408.708557 296.202423,406.012207 293.306610,403.528839 
	C295.855499,401.409271 297.452515,397.581421 301.425598,401.851929 
z"/>
<path fill="#000000" opacity="1.000000" stroke="none" 
	d="
M731.357422,541.568054 
	C728.556152,543.511230 726.091370,543.630859 724.036377,541.149902 
	C722.807068,539.665833 722.382568,537.860840 723.568970,536.100830 
	C725.152222,533.752258 727.419067,532.675598 729.942871,534.208801 
	C732.642090,535.848633 733.769897,538.294128 731.357422,541.568054 
z"/>
<path fill="#000000" opacity="1.000000" stroke="none" 
	d="
M648.075256,365.141205 
	C650.707214,362.397614 653.172668,362.224335 655.566711,364.777557 
	C657.549133,366.891754 656.928345,369.013275 655.222412,370.936493 
	C653.568726,372.800751 651.410706,373.075623 649.414062,371.820221 
	C647.022766,370.316620 646.301819,368.079407 648.075256,365.141205 
z"/>
<path fill="#000000" opacity="1.000000" stroke="none" 
	d="
M333.787720,675.305298 
	C333.636353,676.669434 333.535339,677.659485 333.368500,678.638367 
	C333.042694,680.550415 333.163177,683.075500 330.239227,682.695374 
	C327.436920,682.330933 326.136475,680.123413 325.573914,677.525208 
	C324.699371,673.486328 328.324951,673.710388 330.417175,672.526978 
	C333.162506,670.974304 333.429932,673.059753 333.787720,675.305298 
z"/>
<path fill="#000000" opacity="1.000000" stroke="none" 
	d="
M783.174805,521.081665 
	C785.180115,518.763062 787.281067,518.215515 789.580566,519.750854 
	C791.173279,520.814331 792.231567,522.356079 791.696838,524.403320 
	C791.197388,526.315186 789.854431,527.550415 787.934509,528.007202 
	C784.293274,528.873840 782.216614,526.086609 783.174805,521.081665 
z"/>
<path fill="#000000" opacity="1.000000" stroke="none" 
	d="
M650.205566,358.728180 
	C647.847290,356.497040 647.285217,354.193665 649.382324,352.016541 
	C651.354675,349.968933 653.803833,350.116119 656.129944,351.625946 
	C657.644836,352.609222 658.542969,353.932617 657.660400,355.783783 
	C656.193848,358.860229 653.971191,360.349121 650.205566,358.728180 
z"/>
<path fill="#000000" opacity="1.000000" stroke="none" 
	d="
M683.057983,462.509460 
	C680.871155,466.021210 678.205566,466.406555 675.429321,464.093781 
	C673.373901,462.381531 673.224426,460.039429 674.983459,457.939636 
	C676.892700,455.660553 679.240479,455.663757 681.597839,457.265564 
	C683.336853,458.447205 683.476318,460.240051 683.057983,462.509460 
z"/>
<path fill="#000000" opacity="1.000000" stroke="none" 
	d="
M242.863235,716.966553 
	C245.954453,718.010742 247.444534,719.891541 246.547714,722.767334 
	C245.756546,725.304260 243.649292,726.412903 241.042664,725.900024 
	C239.287125,725.554688 237.187759,725.044556 237.343689,722.614563 
	C237.544952,719.478333 239.026169,717.252319 242.863235,716.966553 
z"/>
<path fill="#000000" opacity="1.000000" stroke="none" 
	d="
M682.180664,447.248413 
	C685.424683,444.282898 688.325806,444.739960 690.243652,448.000732 
	C691.770203,450.596161 690.182983,452.764618 687.664551,453.953094 
	C686.091736,454.695343 684.399414,454.507690 683.063110,453.255066 
	C681.345215,451.644684 680.624573,449.768219 682.180664,447.248413 
z"/>
<path fill="#000000" opacity="1.000000" stroke="none" 
	d="
M791.663208,496.094574 
	C791.302917,497.494812 791.038452,498.678925 790.364014,499.543121 
	C788.629883,501.765106 786.339722,502.605896 783.918030,500.772552 
	C782.060059,499.365967 781.296814,497.276550 782.679504,495.095245 
	C784.243103,492.628662 786.531189,492.208649 789.133667,493.406708 
	C790.200928,493.898071 791.123230,494.576355 791.663208,496.094574 
z"/>
<path fill="#000000" opacity="1.000000" stroke="none" 
	d="
M288.923340,720.092773 
	C292.072998,720.988403 293.592865,722.761169 292.613708,725.689026 
	C291.781921,728.176086 289.668213,729.157288 287.121796,729.012024 
	C285.267944,728.906250 283.992126,727.960205 283.855133,725.971558 
	C283.623474,722.608704 285.293884,720.706604 288.923340,720.092773 
z"/>
<path fill="#000000" opacity="1.000000" stroke="none" 
	d="
M649.350281,384.903748 
	C647.300781,382.694183 646.924255,380.546265 648.671143,378.430267 
	C650.074219,376.730743 652.083740,376.221252 654.048279,377.173096 
	C656.338318,378.282684 657.718323,380.258514 656.548401,382.839661 
	C655.161621,385.899231 652.755188,386.815491 649.350281,384.903748 
z"/>
<path fill="#000000" opacity="1.000000" stroke="none" 
	d="
M252.849060,398.993652 
	C253.529144,401.420013 256.451996,402.073151 256.299377,404.964478 
	C252.367340,406.070129 248.451080,407.584473 242.948471,404.401642 
	C247.481949,403.298492 246.612793,396.449127 252.849060,398.993652 
z"/>
<path fill="#000000" opacity="1.000000" stroke="none" 
	d="
M266.610352,718.029907 
	C269.453278,719.557251 270.843445,721.480530 269.256012,724.271118 
	C268.108429,726.288635 266.286560,727.374329 263.808136,726.743958 
	C261.824097,726.239380 260.533661,725.220886 260.735382,722.924561 
	C261.032532,719.541565 262.750031,717.776184 266.610352,718.029907 
z"/>
<path fill="#000000" opacity="1.000000" stroke="none" 
	d="
M726.765808,561.180420 
	C726.595581,560.120728 726.470947,559.471985 726.348755,558.822815 
	C726.014954,557.049011 725.259644,554.809021 727.718384,554.284912 
	C730.236694,553.748047 730.245789,556.332458 730.850403,557.926025 
	C731.376099,559.311768 731.756470,560.753174 732.187561,562.174011 
	C732.626892,563.622070 734.418091,565.035645 732.501770,566.574463 
	C731.424133,567.439758 730.005493,567.627197 728.717468,567.233704 
	C726.615906,566.591736 727.076965,564.657227 726.917053,563.074341 
	C726.867249,562.581482 726.846497,562.085693 726.765808,561.180420 
z"/>
<path fill="#000000" opacity="1.000000" stroke="none" 
	d="
M352.914612,564.338257 
	C350.464935,561.966553 350.416962,559.696106 352.485626,557.588501 
	C354.198730,555.843140 356.310577,555.676025 358.309143,557.152283 
	C360.076569,558.457825 360.840088,560.319763 359.826324,562.372314 
	C358.431244,565.196838 356.144348,565.960510 352.914612,564.338257 
z"/>
<path fill="#000000" opacity="1.000000" stroke="none" 
	d="
M743.306885,601.031250 
	C742.954773,604.917908 740.614014,605.718384 737.698853,605.258240 
	C735.446838,604.902832 734.397766,603.081543 734.343018,600.971375 
	C734.278687,598.487427 735.849731,596.979980 738.197510,596.617859 
	C741.179321,596.158020 742.805359,597.754272 743.306885,601.031250 
z"/>
<path fill="#000000" opacity="1.000000" stroke="none" 
	d="
M782.731934,512.841187 
	C781.047424,509.892426 781.503296,507.617828 784.162354,506.218475 
	C786.268188,505.110229 788.365479,505.517822 789.943481,507.492584 
	C791.277954,509.162567 791.211121,510.970642 789.926819,512.515869 
	C787.902710,514.951050 785.489990,515.151611 782.731934,512.841187 
z"/>
<path fill="#000000" opacity="1.000000" stroke="none" 
	d="
M388.310455,660.710815 
	C384.876526,661.713684 382.614441,660.741394 381.864899,657.567078 
	C381.292725,655.144104 382.557220,653.293396 384.832520,652.461609 
	C387.242249,651.580566 389.100830,652.720886 390.204163,654.842651 
	C391.375824,657.095825 390.592621,659.012329 388.310455,660.710815 
z"/>
<path fill="#000000" opacity="1.000000" stroke="none" 
	d="
M352.528961,549.580566 
	C350.231995,548.005920 349.223389,546.198547 350.245636,543.858215 
	C351.039337,542.041260 352.684235,541.110168 354.629730,541.135315 
	C356.647644,541.161255 358.006470,542.377319 358.685059,544.250916 
	C359.864014,547.505798 357.707855,549.534912 352.528961,549.580566 
z"/>
<path fill="#000000" opacity="1.000000" stroke="none" 
	d="
M674.354858,525.300171 
	C675.878357,523.567810 677.091553,522.021484 678.399353,520.559814 
	C679.214478,519.648743 680.311096,519.097778 681.450378,519.903015 
	C682.665710,520.761963 682.169556,521.944214 681.658997,522.998962 
	C680.810913,524.750916 679.286072,526.166016 679.158508,528.280212 
	C679.066101,529.812988 678.748840,531.344421 676.838440,531.521484 
	C675.260315,531.667847 673.950073,530.940674 673.021240,529.669800 
	C671.723999,527.894714 672.621338,526.621399 674.354858,525.300171 
z"/>
<path fill="#000000" opacity="1.000000" stroke="none" 
	d="
M359.150940,530.001953 
	C358.236816,533.468262 356.151367,534.771484 353.110931,534.007935 
	C350.957825,533.467163 349.778015,531.753479 350.095398,529.507568 
	C350.438049,527.082825 352.144928,525.685913 354.516083,525.534790 
	C357.249237,525.360535 358.796356,526.902649 359.150940,530.001953 
z"/>
<path fill="#000000" opacity="1.000000" stroke="none" 
	d="
M665.827393,575.253174 
	C668.628418,577.910583 668.732483,580.477722 665.834656,582.468201 
	C663.474121,584.089661 661.109985,583.438843 659.532471,580.928345 
	C658.556091,579.374451 658.791931,577.780579 659.837463,576.332520 
	C661.338379,574.253662 663.331787,574.175842 665.827393,575.253174 
z"/>
<path fill="#000000" opacity="1.000000" stroke="none" 
	d="
M390.013733,615.444092 
	C387.515076,616.585022 385.438507,616.658936 383.832886,614.652344 
	C382.722076,613.264160 382.395966,611.588989 383.303467,609.990234 
	C384.666016,607.589722 386.949707,606.797424 389.225586,608.169983 
	C392.059113,609.878845 392.823364,612.414062 390.013733,615.444092 
z"/>
<path fill="#000000" opacity="1.000000" stroke="none" 
	d="
M386.639282,675.758606 
	C383.024567,675.569519 381.410065,673.744324 381.929932,670.580505 
	C382.322266,668.193176 384.145599,666.856201 386.586578,667.079224 
	C389.060577,667.305298 390.362335,668.978394 390.463684,671.431702 
	C390.561615,673.801392 388.998779,674.944824 386.639282,675.758606 
z"/>
<path fill="#000000" opacity="1.000000" stroke="none" 
	d="
M389.107147,637.893188 
	C390.702148,641.115845 389.535248,643.110962 386.844421,644.203857 
	C385.020660,644.944641 383.162689,644.569092 382.034698,642.704041 
	C380.986176,640.970459 380.974884,639.082825 382.342865,637.587097 
	C384.416229,635.320129 386.703979,635.526672 389.107147,637.893188 
z"/>
<path fill="#000000" opacity="1.000000" stroke="none" 
	d="
M310.911896,695.415161 
	C307.979828,697.738220 305.550140,697.100159 304.112976,694.344299 
	C303.107117,692.415588 303.618652,690.131836 304.997681,688.287292 
	C305.815399,687.193604 306.979950,687.337891 308.150208,687.626343 
	C310.513062,688.208740 311.137787,689.998901 311.238892,692.104492 
	C311.285828,693.081543 311.159058,694.066956 310.911896,695.415161 
z"/>
<path fill="#000000" opacity="1.000000" stroke="none" 
	d="
M762.840881,619.159668 
	C758.809814,616.952087 759.262146,612.621277 757.529053,609.401672 
	C757.127258,608.655334 757.869446,607.788513 758.795532,607.623840 
	C759.867615,607.433289 760.752625,607.902893 761.308777,608.842468 
	C762.818176,611.392212 764.286926,613.967468 766.559875,615.740417 
	C766.446899,618.148499 764.757690,618.559082 762.840881,619.159668 
z"/>
<path fill="#000000" opacity="1.000000" stroke="none" 
	d="
M783.666748,555.775391 
	C783.471008,556.988708 783.143311,557.897278 782.776001,558.789612 
	C781.885315,560.953613 780.168335,561.247314 778.287415,560.454773 
	C776.583679,559.737000 775.802734,558.172791 776.236206,556.386963 
	C776.759094,554.232544 778.507263,553.734253 780.507874,553.916565 
	C781.710449,554.026062 782.726135,554.534607 783.666748,555.775391 
z"/>
<path fill="#000000" opacity="1.000000" stroke="none" 
	d="
M762.650452,524.830139 
	C761.177979,527.258057 759.527039,527.758362 757.517944,526.145081 
	C756.270020,525.143005 755.331055,523.836609 756.447571,522.292419 
	C757.769592,520.463989 759.747498,519.047607 761.980652,519.793518 
	C764.455017,520.619934 763.120239,522.810303 762.650452,524.830139 
z"/>
<path fill="#000000" opacity="1.000000" stroke="none" 
	d="
M241.622742,639.358215 
	C241.821198,638.681335 241.877975,638.271179 242.110443,638.100952 
	C244.922913,636.041321 247.083069,637.009827 248.603821,639.752502 
	C249.486404,641.344177 248.998077,642.825806 247.066422,643.104492 
	C244.426361,643.485168 241.436508,644.043213 241.622742,639.358215 
z"/>
<path fill="#000000" opacity="1.000000" stroke="none" 
	d="
M750.300293,510.921631 
	C747.750122,509.832672 746.991150,508.194794 748.155884,506.028290 
	C748.972656,504.509155 750.528320,504.337463 752.076904,504.642670 
	C753.546753,504.932373 754.441772,505.917267 754.460938,507.410126 
	C754.493042,509.908936 752.940552,510.879242 750.300293,510.921631 
z"/>
<path fill="#000000" opacity="1.000000" stroke="none" 
	d="
M733.429932,500.242493 
	C730.753723,501.156647 729.226501,500.283661 728.592224,497.973602 
	C728.191284,496.513489 728.872742,495.410431 730.175476,494.711884 
	C731.679565,493.905365 733.101074,494.164520 734.212585,495.377258 
	C735.735413,497.039001 735.405212,498.648346 733.429932,500.242493 
z"/>
<path fill="#000000" opacity="1.000000" stroke="none" 
	d="
M286.815735,402.975647 
	C292.112671,405.203400 287.946930,409.072327 288.533234,412.240112 
	C286.616760,409.498901 286.165009,406.456635 286.815735,402.975647 
z"/>
<path fill="#000000" opacity="1.000000" stroke="none" 
	d="
M769.150757,502.084717 
	C770.679932,504.336945 772.673157,505.993225 772.832336,509.624573 
	C769.085144,506.625336 767.701172,502.985901 765.192200,499.335419 
	C767.480225,499.437714 768.041504,500.900513 769.150757,502.084717 
z"/>
<path fill="#000000" opacity="1.000000" stroke="none" 
	d="
M355.623810,465.596375 
	C355.406799,464.135956 355.268494,463.025970 355.130188,461.916016 
	C357.766083,464.755157 359.130188,467.878174 358.233917,472.506866 
	C356.412323,470.082794 356.172882,467.968506 355.623810,465.596375 
z"/>
<path fill="#000000" opacity="1.000000" stroke="none" 
	d="
M658.477966,397.110901 
	C658.852844,399.402771 659.021118,401.335785 657.299072,404.140015 
	C656.479187,399.872955 655.163452,396.619781 657.580444,393.132172 
	C659.361023,394.208588 658.070435,395.651123 658.477966,397.110901 
z"/>
<path fill="#000000" opacity="1.000000" stroke="none" 
	d="
M572.059448,473.344482 
	C576.857361,473.737488 574.249939,477.699615 575.290955,479.783905 
	C581.661438,492.538177 585.866638,506.122162 580.180908,520.122986 
	C574.890503,533.150269 568.572571,546.907532 552.724731,549.191956 
	C522.152222,553.598999 492.820648,535.978821 497.176117,500.919678 
	C501.164032,468.818481 534.324097,451.669220 564.002563,469.046753 
	C566.541809,470.533508 568.487732,473.139709 572.059448,473.344482 
z"/>
<path fill="#000000" opacity="1.000000" stroke="none" 
	d="
M342.646484,367.893921 
	C339.582825,369.834747 337.290314,369.284241 335.722870,366.486725 
	C334.516846,364.334259 335.006683,362.310425 336.971222,360.812225 
	C338.871002,359.363434 340.953583,359.168243 342.829407,360.796967 
	C345.334259,362.971832 345.023499,365.331848 342.646484,367.893921 
z"/>
</svg>