<svg width="47" height="47" viewBox="0 0 47 47" fill="none" xmlns="http://www.w3.org/2000/svg">
<path opacity="0.5" d="M44.5146 13.0687C44.4968 11.4314 44.1969 9.8093 43.6281 8.27378C43.2147 7.15184 42.5549 6.1369 41.6974 5.30368C40.864 4.44687 39.8491 3.78791 38.7273 3.37535C37.1915 2.80728 35.5697 2.50662 33.9323 2.48644C31.2092 2.36416 30.3931 2.33594 23.5005 2.33594C16.6103 2.33594 15.7896 2.35945 13.0687 2.48644C11.4314 2.50429 9.8093 2.8042 8.27378 3.373C7.15148 3.78567 6.13639 4.44552 5.30368 5.30368C4.44824 6.13908 3.78953 7.15447 3.37535 8.27613C2.80763 9.81121 2.50698 11.4322 2.48644 13.0687C2.36416 15.7943 2.33594 16.6103 2.33594 23.5029C2.33594 30.3955 2.35945 31.2139 2.48644 33.9347C2.50504 35.5722 2.80575 37.1943 3.37535 38.7296C3.78689 39.849 4.44769 40.8649 5.30604 41.695C6.13953 42.5528 7.15434 43.2133 8.27613 43.6281C9.80939 44.1972 11.432 44.4982 13.0687 44.5146C15.7896 44.6416 16.6103 44.6651 23.5005 44.6651C30.3908 44.6651 31.2139 44.6416 33.9323 44.5146C35.5697 44.4968 37.1918 44.1969 38.7273 43.6281C39.8408 43.1989 40.8522 42.5413 41.6963 41.6977C42.5403 40.854 43.1984 39.843 43.6281 38.7296C44.1958 37.193 44.4957 35.5704 44.5146 33.9323C44.6416 31.2139 44.6651 30.3955 44.6651 23.5005C44.6651 16.6056 44.6416 15.7919 44.5146 13.0687Z" fill="#F20505"/>
<path d="M37.2358 13.1063C36.9427 12.3461 36.4937 11.6557 35.9175 11.0796C35.3414 10.5035 34.6509 10.0545 33.8907 9.76147C32.842 9.37383 31.7347 9.16844 30.6168 9.15418C28.7568 9.06878 28.1969 9.0498 23.4924 9.0498C18.788 9.0498 18.2304 9.06878 16.3752 9.15418C15.2573 9.16618 14.1497 9.37081 13.1013 9.75909C11.5616 10.3521 10.3493 11.5667 9.75622 13.1039C9.36715 14.1548 9.16312 15.2626 9.14889 16.3776C9.06348 18.2374 9.04688 18.7948 9.04688 23.5013C9.04688 28.2078 9.06348 28.7676 9.14889 30.625C9.16075 31.7424 9.36715 32.8502 9.75385 33.8987C10.047 34.6588 10.4961 35.3491 11.0723 35.9252C11.6484 36.5013 12.3388 36.9503 13.0989 37.2435C14.1499 37.6302 15.2578 37.8366 16.3729 37.8484C18.2304 37.9338 18.788 37.9504 23.4948 37.9504C28.2017 37.9504 28.7615 37.9338 30.6191 37.8484C31.7372 37.8355 32.8447 37.63 33.8931 37.2411C34.6532 36.948 35.3436 36.4989 35.9197 35.9228C36.4959 35.3468 36.945 34.6564 37.2381 33.8963C37.6272 32.8502 37.8312 31.7424 37.8455 30.6227C37.9309 28.7652 37.9475 28.2078 37.9475 23.5013C37.9475 18.7948 37.9309 18.2374 37.8455 16.3799C37.8326 15.2619 37.6271 14.1545 37.2381 13.1063H37.2358ZM23.4924 32.5513C22.3039 32.5513 21.127 32.3172 20.0289 31.8624C18.9308 31.4076 17.9331 30.741 17.0926 29.9006C16.2522 29.0602 15.5855 28.0626 15.1307 26.9646C14.6758 25.8666 14.4417 24.6898 14.4417 23.5013C14.4417 22.3128 14.6758 21.136 15.1307 20.038C15.5855 18.94 16.2522 17.9424 17.0926 17.102C17.9331 16.2616 18.9308 15.595 20.0289 15.1402C21.127 14.6854 22.3039 14.4513 23.4924 14.4513C25.8928 14.4513 28.1949 15.4048 29.8923 17.102C31.5896 18.7992 32.5432 21.1011 32.5432 23.5013C32.5432 25.9015 31.5896 28.2034 29.8923 29.9006C28.1949 31.5978 25.8928 32.5513 23.4924 32.5513ZM32.9014 16.2068C32.3527 16.1884 31.8327 15.9575 31.451 15.5629C31.0694 15.1683 30.8561 14.6409 30.8561 14.0919C30.8561 13.543 31.0694 13.0155 31.451 12.6209C31.8327 12.2263 32.3527 11.9955 32.9014 11.9771H32.9038C33.4525 11.9939 33.9733 12.2233 34.3561 12.6168C34.7389 13.0103 34.9537 13.5372 34.9553 14.0862C34.9568 14.6352 34.7449 15.1633 34.3643 15.5589C33.9838 15.9546 33.4643 16.1869 32.9156 16.2068H32.9014Z" fill="#F20505"/>
<path d="M23.4972 17.8076C22.3714 17.8076 21.2708 18.1415 20.3346 18.767C19.3985 19.3925 18.6689 20.2815 18.238 21.3217C17.8072 22.3619 17.6944 23.5065 17.9141 24.6107C18.1337 25.715 18.6759 26.7293 19.472 27.5254C20.2681 28.3215 21.2824 28.8637 22.3867 29.0833C23.4909 29.303 24.6355 29.1902 25.6757 28.7594C26.7159 28.3285 27.6049 27.5989 28.2304 26.6628C28.8559 25.7266 29.1898 24.626 29.1898 23.5002C29.1898 21.9908 28.5903 20.5432 27.5233 19.4757C26.4562 18.4082 25.0089 17.8082 23.4995 17.8076H23.4972Z" fill="#F20505"/>
<path d="M46.8355 11.9145C46.8144 10.0975 46.4805 8.29775 45.8485 6.5941C45.3888 5.34851 44.6556 4.22186 43.7029 3.29705C42.7783 2.34421 41.6516 1.61101 40.4059 1.1515C38.701 0.520884 36.9008 0.187054 35.0831 0.1645C32.0587 0.0328998 31.1539 0 23.5 0C15.8507 0 14.9413 0.0281998 11.9192 0.1645C10.1015 0.186544 8.30116 0.52039 6.59645 1.1515C5.35018 1.60985 4.22324 2.34321 3.2994 3.29705C2.34841 4.22323 1.6155 5.34948 1.15385 6.5941C0.523324 8.29897 0.189497 10.0993 0.16685 11.9169C0.0329002 14.9413 0 15.8484 0 23.5023C0 31.1563 0.0282002 32.0634 0.16685 35.0855C0.19035 36.9021 0.5217 38.7045 1.15385 40.4082C1.6121 41.6537 2.3453 42.7817 3.29705 43.7029C4.22242 44.6549 5.34891 45.388 6.5941 45.8485C8.29846 46.4809 10.0991 46.8148 11.9169 46.8355C14.9389 46.9741 15.8484 47 23.5 47C31.1539 47 32.0611 46.9718 35.0855 46.8355C36.9025 46.8145 38.7023 46.4806 40.4059 45.8485C41.6426 45.3718 42.7657 44.6415 43.7031 43.7045C44.6405 42.7676 45.3713 41.6447 45.8485 40.4082C46.4783 38.7021 46.812 36.9021 46.8355 35.0855C46.9718 32.0611 47 31.1516 47 23.5C47 15.846 46.9718 14.9413 46.8355 11.9145ZM40.8547 30.698C40.827 32.1469 40.5528 33.5805 40.044 34.9375C39.5953 36.0973 38.9093 37.1506 38.03 38.03C37.1506 38.9093 36.0973 39.5953 34.9375 40.044C33.5811 40.5519 32.1484 40.826 30.7004 40.8547C28.8368 40.9417 28.2423 40.9605 23.5 40.9605C18.7577 40.9605 18.1655 40.9394 16.302 40.8547C14.8539 40.8259 13.4213 40.5517 12.0649 40.044C10.9046 39.5957 9.85071 38.9099 8.97092 38.0305C8.09113 37.1511 7.40482 36.0976 6.956 34.9375C6.44786 33.5804 6.17372 32.1469 6.14525 30.698C6.063 28.8368 6.0395 28.2423 6.0395 23.5C6.0395 18.7577 6.06065 18.1632 6.14525 16.302C6.17372 14.8531 6.44786 13.4196 6.956 12.0625C7.4047 10.9023 8.09096 9.84874 8.97077 8.96934C9.85057 8.08994 10.9045 7.40416 12.0649 6.956C13.4212 6.44812 14.8539 6.17399 16.302 6.14525C18.1655 6.0583 18.7624 6.0395 23.5023 6.0395C28.2423 6.0395 28.8368 6.06065 30.7004 6.14525C32.1493 6.17336 33.5828 6.44751 34.9398 6.956C36.0992 7.40496 37.1521 8.09108 38.031 8.97042C38.9099 9.84976 39.5956 10.9029 40.044 12.0625C40.554 13.4208 40.8265 14.852 40.8547 16.302C40.9394 18.1632 40.9605 18.7577 40.9605 23.5C40.9605 28.2423 40.9394 28.8345 40.8547 30.698Z" fill="#F20505"/>
</svg>
