<svg width="60" height="47" viewBox="0 0 60 47" fill="none" xmlns="http://www.w3.org/2000/svg">
<path d="M60 5.56375C57.7532 6.52314 55.3701 7.15289 52.9298 7.43204C55.4716 5.96361 57.4233 3.63831 58.3423 0.867726C55.926 2.24982 53.2824 3.22359 50.5256 3.74697C48.2801 1.44109 45.0811 0 41.5404 0C34.7421 0 29.2303 5.31254 29.2303 11.8649C29.2303 12.795 29.3393 13.7004 29.5491 14.569C19.3186 14.0741 10.2483 9.35048 4.1768 2.17191C3.11742 3.92431 2.51039 5.96271 2.51039 8.13688C2.51039 12.2534 4.68375 15.885 7.98656 18.0128C6.03176 17.9538 4.11996 17.4449 2.41078 16.5286C2.41008 16.5783 2.41008 16.628 2.41008 16.6779C2.41008 22.4267 6.6532 27.2223 12.2843 28.3124C10.4716 28.7876 8.57022 28.8571 6.72539 28.5157C8.29172 33.2296 12.8379 36.6598 18.2243 36.7558C14.0114 39.938 8.70352 41.835 2.93648 41.835C1.94273 41.835 0.963047 41.7787 0 41.6692C5.44758 45.0357 11.918 47 18.8695 47C41.5118 47 53.8931 28.9201 53.8931 13.2409C53.8931 12.7263 53.8814 12.2146 53.8575 11.7058C56.2674 10.0266 58.3475 7.9467 60 5.56375Z" fill="#55ACEE"/>
</svg>
