<svg width="46" height="47" viewBox="0 0 46 47" fill="none" xmlns="http://www.w3.org/2000/svg">
<path d="M12.5777 40.7075L13.2924 41.078C16.2705 42.9306 19.6057 43.7952 22.9411 43.7952C33.4235 43.7952 42 34.9026 42 24.0338C42 18.8465 39.9749 13.7826 36.4015 10.0773C32.8279 6.37202 28.063 4.27246 22.9411 4.27246C12.4587 4.27246 3.88203 13.1651 4.00123 24.1574C4.00123 27.8625 5.07329 31.4445 6.86 34.532L7.33644 35.2732L5.4307 42.5602L12.5777 40.7075Z" fill="#00E676"/>
<path d="M39.3569 6.85945C35.0953 2.41359 29.2043 0 23.188 0C10.4034 0 0.12542 10.5432 0.25066 23.3729C0.25066 27.4378 1.37872 31.3758 3.25894 34.9324L0 47L12.158 43.8243C15.5422 45.7298 19.3023 46.619 23.0627 46.619C35.722 46.619 46 36.0757 46 23.2461C46 17.0217 43.6185 11.1784 39.3571 6.85945H39.3569ZM23.188 42.6813C19.8038 42.6813 16.4196 41.7922 13.5367 40.0138L12.7847 39.6327L5.51506 41.538L7.3951 34.2976L6.89378 33.5353C1.37872 24.5165 4.01092 12.5757 13.0354 6.98637C22.0599 1.39728 33.7166 4.0649 39.2316 13.2108C44.7465 22.3568 42.1143 34.1703 33.09 39.7596C30.207 41.6649 26.6976 42.6811 23.188 42.6811V42.6813ZM34.2179 28.5814L32.8392 27.9462C32.8392 27.9462 30.8339 27.057 29.5804 26.4218C29.455 26.4218 29.3298 26.2947 29.2043 26.2947C28.8283 26.2947 28.5776 26.4218 28.3269 26.5489C28.3269 26.5489 28.2017 26.6759 26.4469 28.7083C26.3215 28.9624 26.0708 29.0895 25.8202 29.0895H25.6947C25.5695 29.0895 25.3188 28.9624 25.1934 28.8354L24.5667 28.5814C23.188 27.9462 21.9347 27.1839 20.9318 26.1678C20.6812 25.9138 20.3051 25.6597 20.0544 25.4057C19.177 24.5165 18.2996 23.5002 17.6731 22.3569L17.5476 22.1029C17.4224 21.9758 17.4224 21.8489 17.297 21.5948C17.297 21.3408 17.297 21.0868 17.4224 20.9597C17.4224 20.9597 17.9237 20.3245 18.2996 19.9435C18.5505 19.6893 18.6757 19.3084 18.9264 19.0543C19.177 18.6732 19.3024 18.1651 19.177 17.784C19.0518 17.1488 17.5476 13.7191 17.1717 12.957C16.9209 12.5758 16.6704 12.4489 16.2943 12.3218H14.9156C14.6648 12.3218 14.4143 12.4489 14.1635 12.4489L14.038 12.5758C13.7874 12.7029 13.5367 12.957 13.2861 13.0839C13.0354 13.3381 12.91 13.592 12.6593 13.8462C11.7819 14.9894 11.2806 16.3867 11.2806 17.784C11.2806 18.8001 11.5313 19.8164 11.9073 20.7056L12.0328 21.0868C13.1608 23.5002 14.6648 25.6597 16.6704 27.5651L17.1717 28.0731C17.5476 28.4543 17.9237 28.7083 18.1744 29.0893C20.8066 31.3759 23.8147 33.0273 27.1989 33.9165C27.575 34.0434 28.0763 34.0434 28.4524 34.1705H29.7057C30.3324 34.1705 31.0844 33.9165 31.5859 33.6624C31.9618 33.4084 32.2124 33.4084 32.4631 33.1544L32.7139 32.9001C32.9646 32.6461 33.2153 32.5192 33.4659 32.2652C33.7166 32.0111 33.9672 31.7571 34.0927 31.5029C34.3433 30.9948 34.4686 30.3596 34.594 29.7246V28.8354C34.594 28.8354 34.4686 28.7083 34.2179 28.5814Z" fill="black"/>
</svg>
